<?xml version="1.0" standalone="no"?>
<!DOCTYPE svg PUBLIC "-//W3C//DTD SVG 20010904//EN"
 "http://www.w3.org/TR/2001/REC-SVG-20010904/DTD/svg10.dtd">
<svg version="1.0" xmlns="http://www.w3.org/2000/svg"
 width="475.000000pt" height="475.000000pt" viewBox="0 0 475.000000 475.000000"
 preserveAspectRatio="xMidYMid meet">
<metadata>
Created by potrace 1.14, written by Peter Selinger 2001-2017
</metadata>
<g transform="translate(0.000000,475.000000) scale(0.100000,-0.100000)"
fill="#000000" stroke="none">
<path d="M2383 4568 c-11 -18 -44 -78 -73 -133 -29 -55 -70 -132 -92 -171
l-39 -72 -52 20 c-29 11 -59 21 -67 23 -8 2 -49 13 -91 24 -79 22 -204 48
-274 57 -22 3 -65 9 -95 14 -30 5 -93 12 -140 16 -47 4 -103 9 -125 11 -57 5
-1297 13 -1315 7 -13 -3 -15 -61 -13 -446 0 -244 1 -447 2 -453 1 -7 133 -9
378 -9 208 1 385 2 393 3 13 1 16 14 14 72 l-2 71 282 -5 c154 -3 297 -8 315
-11 138 -23 215 -39 276 -57 39 -11 80 -23 92 -26 12 -3 26 -10 31 -17 6 -7
-34 -90 -110 -231 -66 -121 -147 -272 -180 -335 -33 -63 -68 -128 -78 -145
-10 -16 -41 -75 -70 -130 -29 -55 -65 -122 -80 -150 -15 -27 -45 -81 -65 -120
-21 -38 -50 -92 -65 -120 -15 -27 -49 -90 -75 -140 -26 -49 -60 -112 -75 -140
-15 -27 -56 -104 -90 -170 -35 -66 -66 -124 -70 -130 -4 -5 -30 -53 -57 -105
-52 -99 -182 -340 -345 -640 -52 -96 -124 -231 -161 -300 -36 -69 -102 -190
-145 -270 -44 -80 -78 -148 -76 -151 5 -8 1190 -3 1354 5 463 24 690 70 920
186 54 27 195 115 210 130 3 3 30 25 60 48 83 65 205 187 275 277 60 77 155
217 155 229 0 4 11 23 23 44 47 74 150 334 181 456 2 9 63 -98 176 -309 23
-44 55 -102 70 -130 15 -27 51 -95 80 -150 29 -55 116 -217 193 -360 76 -143
157 -294 179 -335 22 -41 44 -79 49 -85 12 -12 779 -14 779 -1 0 9 -22 52
-253 481 -77 143 -158 294 -180 335 -22 41 -52 98 -67 125 -41 76 -91 168
-155 290 -32 61 -73 136 -91 168 -19 32 -34 60 -34 62 0 2 -60 116 -133 252
-74 136 -152 282 -174 323 -22 41 -58 109 -80 150 -92 169 -253 471 -303 565
-29 55 -61 114 -70 130 -10 17 -39 71 -65 120 -27 50 -90 168 -142 263 -51 95
-93 175 -93 177 0 2 -17 34 -38 72 -21 37 -63 113 -92 168 -159 300 -251 472
-260 485 -5 8 -16 29 -24 45 -9 17 -33 63 -54 103 l-40 73 -19 -33z m-14
-1630 c34 -77 67 -172 82 -235 11 -50 12 -57 23 -113 3 -19 8 -45 10 -57 8
-41 18 -177 19 -263 1 -90 -10 -291 -18 -312 -2 -7 -7 -31 -10 -52 -45 -309
-243 -636 -470 -773 -144 -88 -342 -135 -625 -149 -58 -3 -111 -7 -117 -9 -7
-2 -13 1 -13 7 0 6 57 118 126 247 142 265 184 343 224 416 15 28 46 85 69
128 49 92 94 176 191 357 40 74 89 167 110 205 20 39 58 108 83 155 80 147
135 251 205 382 37 71 71 128 75 128 4 0 20 -28 36 -62z"/>
</g>
</svg>
